<svg width="17" height="14" viewBox="0 0 17 14" fill="none" xmlns="http://www.w3.org/2000/svg">
<path d="M2.5 0H14.1666C14.8297 0 15.4656 0.263392 15.9344 0.732238C16.4032 1.20108 16.6666 1.83696 16.6666 2.5V10.8333C16.6666 11.4963 16.4032 12.1322 15.9344 12.6011C15.4656 13.0699 14.8297 13.3333 14.1666 13.3333H2.5C1.83696 13.3333 1.20108 13.0699 0.732228 12.6011C0.263392 12.1322 0 11.4963 0 10.8333V2.5C0 1.83696 0.263392 1.20108 0.732228 0.732238C1.20108 0.263392 1.83696 0 2.5 0ZM2.5 1.66667L7.91667 5.39167C8.04335 5.46481 8.18705 5.50331 8.33334 5.50331C8.47962 5.50331 8.62332 5.46481 8.75 5.39167L14.1666 1.66667H2.5Z" fill="gold"/>
</svg>
