<svg width="18" height="21" viewBox="0 0 18 21" fill="none" xmlns="http://www.w3.org/2000/svg">
<path d="M1.04266 13.1145C0.35598 11.825 -0.00214038 10.386 9.62383e-06 8.925C9.62383e-06 3.99578 3.99579 0 8.92498 0C13.8543 0 17.85 3.99578 17.85 8.925C17.8536 11.0304 17.1094 13.0687 15.75 14.6764L15.7395 14.6895C15.7359 14.6927 15.7327 14.6969 15.7301 14.7H15.75L10.4538 20.3228C10.2575 20.5312 10.0206 20.6972 9.75778 20.8107C9.49488 20.9242 9.21158 20.9828 8.92528 20.9828C8.63898 20.9828 8.35568 20.9242 8.09278 20.8107C7.82998 20.6972 7.59308 20.5312 7.39678 20.3228L2.10001 14.7H2.11996L2.11156 14.69L2.11052 14.689C2.07271 14.6438 2.03491 14.5987 1.99764 14.5525C1.63349 14.1049 1.3135 13.6232 1.04214 13.114L1.04266 13.1145ZM8.92288 12.3375C9.75838 12.3375 10.5596 12.0056 11.1503 11.4149C11.7411 10.8241 12.0729 10.0229 12.0729 9.1875C12.0729 8.3521 11.7411 7.5509 11.1503 6.96011C10.5596 6.36937 9.75838 6.0375 8.92288 6.0375C8.08748 6.0375 7.28628 6.36937 6.69548 6.96011C6.10478 7.5509 5.77291 8.3521 5.77291 9.1875C5.77291 10.0229 6.10478 10.8241 6.69548 11.4149C7.28628 12.0056 8.08748 12.3375 8.92288 12.3375Z" fill="gold"/>
</svg>
