<svg width="19" height="18" viewBox="0 0 19 18" fill="none" xmlns="http://www.w3.org/2000/svg">
<path d="M2.82844 0.397212C3.31354 0.0868823 3.89031 -0.0479377 4.46271 0.0151923C5.03511 0.0783223 5.56861 0.335592 5.97441 0.744182L6.11531 0.899372L7.42341 2.45501C7.82041 2.92719 8.06981 3.50562 8.14061 4.11852C8.21151 4.73132 8.10061 5.35142 7.82181 5.90172L7.70591 6.10742L6.77601 7.64542C6.60931 7.92582 7.01701 8.71252 8.24621 9.90682C9.35241 10.9814 10.1262 11.4103 10.4325 11.3588L10.4846 11.3441L10.5454 11.3137L12.815 9.84912C13.1199 9.65202 13.4752 9.54682 13.8383 9.54632C14.2014 9.54582 14.5569 9.64992 14.8624 9.84612L15.0123 9.95422L17.3034 11.7668C17.7524 12.1221 18.0671 12.6197 18.1955 13.1777C18.324 13.7357 18.2586 14.3208 18.0101 14.8367L17.9055 15.0313L17.4252 15.8407C16.9936 16.5667 16.3626 17.1535 15.6072 17.5314C14.8519 17.9092 14.0039 18.0622 13.1641 17.9722C10.5503 17.6917 7.80681 16.1358 4.92021 13.3317C2.02759 10.5201 0.390747 7.81872 0.039317 5.20742C-0.066803 4.41792 0.0428569 3.61452 0.356657 2.88245C0.670457 2.15035 1.17668 1.51691 1.82156 1.0494L2.03352 0.905482L2.82844 0.397212Z" fill="gold"/>
</svg>
